<svg xmlns="http://www.w3.org/2000/svg" width="1200" height="460" viewBox="0 0 1200 460" role="img" aria-label="Moghees — creative developer">
  <defs>
    <pattern id="dots" width="8" height="8" patternUnits="userSpaceOnUse"><circle cx="2" cy="2" r="1.45" fill="#c8ff3d"/></pattern>
    <pattern id="fine" width="5" height="5" patternUnits="userSpaceOnUse"><circle cx="1.5" cy="1.5" r=".8" fill="#f3f0e8"/></pattern>
    <radialGradient id="orb" cx="50%" cy="45%"><stop offset="0" stop-color="#f3f0e8"/><stop offset=".28" stop-color="#c8ff3d"/><stop offset=".72" stop-color="#26320e"/><stop offset="1" stop-color="#090a08"/></radialGradient>
    <filter id="glow"><feGaussianBlur stdDeviation="13" result="b"/><feMerge><feMergeNode in="b"/><feMergeNode in="SourceGraphic"/></feMerge></filter>
    <mask id="orbmask"><circle cx="885" cy="230" r="167" fill="url(#orb)"/></mask>
  </defs>
  <rect width="1200" height="460" rx="18" fill="#090a08"/>
  <rect x="1" y="1" width="1198" height="458" rx="17" fill="none" stroke="#302b38"/>
  <path d="M0 72H1200M720 72V460" stroke="#24202b"/>
  <text x="48" y="45" fill="#8f9188" font-family="monospace" font-size="11" letter-spacing="2">MOGHEES / SOFTWARE WORKSHOP</text>
  <circle cx="1152" cy="36" r="4" fill="#9affb8" filter="url(#glow)"/><text x="1040" y="41" fill="#8d8794" font-family="monospace" font-size="10" letter-spacing="1">SIGNAL ONLINE</text>
  <text x="54" y="174" fill="#f3f0e8" font-family="Arial, sans-serif" font-size="74" font-weight="600" letter-spacing="-4">BUILDING USEFUL</text>
  <text x="54" y="250" fill="#c8ff3d" font-family="Georgia, serif" font-size="82" font-style="italic" letter-spacing="-4">strange things.</text>
  <text x="58" y="314" fill="#a7a99f" font-family="monospace" font-size="14" letter-spacing="1">ANDROID · TERMINAL · WEB · GENERATIVE SYSTEMS</text>
  <path d="M58 365H512" stroke="#403847"/>
  <text x="58" y="397" fill="#777970" font-family="monospace" font-size="11" letter-spacing="2">OPEN SOURCE / CURRENTLY TRANSMITTING</text>
  <circle cx="885" cy="230" r="165" fill="#1b220d" opacity=".75" filter="url(#glow)"/>
  <circle cx="885" cy="230" r="165" fill="url(#dots)"/>
  <circle cx="855" cy="195" r="102" fill="url(#fine)" opacity=".85"/>
  <path d="M734 230c44-77 88-114 151-136 63 22 112 67 151 136-39 69-88 115-151 136-63-21-107-59-151-136Z" fill="none" stroke="#e6f7b8" opacity=".45"/>
  <circle cx="885" cy="230" r="190" fill="none" stroke="#43394c" stroke-dasharray="2 10"/>
  <path d="M695 230H1075M885 40V420" stroke="#50425c" stroke-width=".7" opacity=".5"/>
  <text x="738" y="430" fill="#6f6875" font-family="monospace" font-size="9" letter-spacing="1">GENERATIVE FIELD / 001</text>
  <text x="1012" y="430" fill="#6f6875" font-family="monospace" font-size="9" letter-spacing="1">X 44.39  Y 08.12</text>
</svg>
